<mxfile host="www.draw.io" modified="2020-03-11T21:01:37.825Z" agent="Mozilla/5.0 (Windows NT 10.0; Win64; x64) AppleWebKit/537.36 (KHTML, like Gecko) Chrome/80.0.3987.132 Safari/537.36" etag="gGWenreWU-t3ZJu9PuCj" version="12.8.2" type="github">
  <diagram id="UFNA505NZZ54J7_U2GtA" name="Page-1">
    <mxGraphModel dx="1662" dy="804" grid="1" gridSize="10" guides="1" tooltips="1" connect="1" arrows="1" fold="1" page="1" pageScale="1" pageWidth="850" pageHeight="1100" math="0" shadow="0">
      <root>
        <mxCell id="0" />
        <mxCell id="1" parent="0" />
        <mxCell id="WGG4HVokIeoPWF8pcOGC-1" value="ScoreNotification" style="swimlane;fontStyle=1;align=center;verticalAlign=top;childLayout=stackLayout;horizontal=1;startSize=26;horizontalStack=0;resizeParent=1;resizeParentMax=0;resizeLast=0;collapsible=1;marginBottom=0;" parent="1" vertex="1">
          <mxGeometry x="820" y="320" width="260" height="262" as="geometry">
            <mxRectangle x="425" y="180" width="130" height="26" as="alternateBounds" />
          </mxGeometry>
        </mxCell>
        <object label="- mHomeTeam: String&#xa;- mAwayTeam: String&#xa;- mHomeScore: int&#xa;- mAwayScore: int&#xa;- mLatestPlay: String&#xa;- mdb: DatabaseHelper" mAwayTeam="String" id="WGG4HVokIeoPWF8pcOGC-19">
          <mxCell style="text;strokeColor=none;fillColor=none;align=left;verticalAlign=top;spacingLeft=4;spacingRight=4;overflow=hidden;rotatable=0;points=[[0,0.5],[1,0.5]];portConstraint=eastwest;" parent="WGG4HVokIeoPWF8pcOGC-1" vertex="1">
            <mxGeometry y="26" width="260" height="94" as="geometry" />
          </mxCell>
        </object>
        <mxCell id="WGG4HVokIeoPWF8pcOGC-3" value="" style="line;strokeWidth=1;fillColor=none;align=left;verticalAlign=middle;spacingTop=-1;spacingLeft=3;spacingRight=3;rotatable=0;labelPosition=right;points=[];portConstraint=eastwest;" parent="WGG4HVokIeoPWF8pcOGC-1" vertex="1">
          <mxGeometry y="120" width="260" height="8" as="geometry" />
        </mxCell>
        <mxCell id="WGG4HVokIeoPWF8pcOGC-4" value="- Notify(id: int)&#xa;- Update(updatedData: Game, id: int)&#xa;- IsUpdated(updatedGame: Game)" style="text;strokeColor=none;fillColor=none;align=left;verticalAlign=top;spacingLeft=4;spacingRight=4;overflow=hidden;rotatable=0;points=[[0,0.5],[1,0.5]];portConstraint=eastwest;" parent="WGG4HVokIeoPWF8pcOGC-1" vertex="1">
          <mxGeometry y="128" width="260" height="134" as="geometry" />
        </mxCell>
        <mxCell id="WGG4HVokIeoPWF8pcOGC-9" value="&lt;&lt;Interface&gt;&gt;&#xa;GameMonitor" style="swimlane;fontStyle=1;align=center;verticalAlign=top;childLayout=stackLayout;horizontal=1;startSize=43;horizontalStack=0;resizeParent=1;resizeParentMax=0;resizeLast=0;collapsible=1;marginBottom=0;" parent="1" vertex="1">
          <mxGeometry x="690" y="103.5" width="260" height="97" as="geometry" />
        </mxCell>
        <mxCell id="WGG4HVokIeoPWF8pcOGC-12" value="- Update(updatedData: Game, id: int)&#xa;- IsUpdated(updatedGame: Game)" style="text;strokeColor=none;fillColor=none;align=left;verticalAlign=top;spacingLeft=4;spacingRight=4;overflow=hidden;rotatable=0;points=[[0,0.5],[1,0.5]];portConstraint=eastwest;" parent="WGG4HVokIeoPWF8pcOGC-9" vertex="1">
          <mxGeometry y="43" width="260" height="54" as="geometry" />
        </mxCell>
        <mxCell id="WGG4HVokIeoPWF8pcOGC-14" value="CardLogic" style="swimlane;fontStyle=1;align=center;verticalAlign=top;childLayout=stackLayout;horizontal=1;startSize=26;horizontalStack=0;resizeParent=1;resizeParentMax=0;resizeLast=0;collapsible=1;marginBottom=0;" parent="1" vertex="1">
          <mxGeometry x="550" y="320" width="220" height="268" as="geometry" />
        </mxCell>
        <object label="- mHomeTeam: String&#xa;- mAwayTeam: String&#xa;- mHomeScore: int&#xa;- mHomeLogo: String&#xa;- mAwayLgo: String&#xa;- mAwayScore: int&#xa;- mLatestPlay: String&#xa;- mQuarter: int&#xa;- mQuarterTime: String&#xa;- mAdapter: Adaptor" mAwayTeam="String" id="WGG4HVokIeoPWF8pcOGC-2">
          <mxCell style="text;strokeColor=none;fillColor=none;align=left;verticalAlign=top;spacingLeft=4;spacingRight=4;overflow=hidden;rotatable=0;points=[[0,0.5],[1,0.5]];portConstraint=eastwest;" parent="WGG4HVokIeoPWF8pcOGC-14" vertex="1">
            <mxGeometry y="26" width="220" height="164" as="geometry" />
          </mxCell>
        </object>
        <mxCell id="WGG4HVokIeoPWF8pcOGC-16" value="" style="line;strokeWidth=1;fillColor=none;align=left;verticalAlign=middle;spacingTop=-1;spacingLeft=3;spacingRight=3;rotatable=0;labelPosition=right;points=[];portConstraint=eastwest;" parent="WGG4HVokIeoPWF8pcOGC-14" vertex="1">
          <mxGeometry y="190" width="220" height="8" as="geometry" />
        </mxCell>
        <mxCell id="WGG4HVokIeoPWF8pcOGC-17" value="+ getHomeLogo: int&#xa;+ getAwayLogo: int&#xa;+ Update(updateData: Game, id: int)" style="text;strokeColor=none;fillColor=none;align=left;verticalAlign=top;spacingLeft=4;spacingRight=4;overflow=hidden;rotatable=0;points=[[0,0.5],[1,0.5]];portConstraint=eastwest;" parent="WGG4HVokIeoPWF8pcOGC-14" vertex="1">
          <mxGeometry y="198" width="220" height="70" as="geometry" />
        </mxCell>
        <mxCell id="WGG4HVokIeoPWF8pcOGC-20" value="App" style="swimlane;fontStyle=1;align=center;verticalAlign=top;childLayout=stackLayout;horizontal=1;startSize=26;horizontalStack=0;resizeParent=1;resizeParentMax=0;resizeLast=0;collapsible=1;marginBottom=0;" parent="1" vertex="1">
          <mxGeometry x="100" y="410" width="240" height="110" as="geometry" />
        </mxCell>
        <mxCell id="WGG4HVokIeoPWF8pcOGC-21" value="+ GAMESCORES_CHANNEL_ID: String" style="text;strokeColor=none;fillColor=none;align=left;verticalAlign=top;spacingLeft=4;spacingRight=4;overflow=hidden;rotatable=0;points=[[0,0.5],[1,0.5]];portConstraint=eastwest;" parent="WGG4HVokIeoPWF8pcOGC-20" vertex="1">
          <mxGeometry y="26" width="240" height="34" as="geometry" />
        </mxCell>
        <mxCell id="WGG4HVokIeoPWF8pcOGC-22" value="" style="line;strokeWidth=1;fillColor=none;align=left;verticalAlign=middle;spacingTop=-1;spacingLeft=3;spacingRight=3;rotatable=0;labelPosition=right;points=[];portConstraint=eastwest;" parent="WGG4HVokIeoPWF8pcOGC-20" vertex="1">
          <mxGeometry y="60" width="240" height="8" as="geometry" />
        </mxCell>
        <mxCell id="WGG4HVokIeoPWF8pcOGC-23" value="+ onCreate()&#xa;- createNotificationChannels()" style="text;strokeColor=none;fillColor=none;align=left;verticalAlign=top;spacingLeft=4;spacingRight=4;overflow=hidden;rotatable=0;points=[[0,0.5],[1,0.5]];portConstraint=eastwest;" parent="WGG4HVokIeoPWF8pcOGC-20" vertex="1">
          <mxGeometry y="68" width="240" height="42" as="geometry" />
        </mxCell>
        <mxCell id="WGG4HVokIeoPWF8pcOGC-24" value="BackgroundService" style="swimlane;fontStyle=1;align=center;verticalAlign=top;childLayout=stackLayout;horizontal=1;startSize=26;horizontalStack=0;resizeParent=1;resizeParentMax=0;resizeLast=0;collapsible=1;marginBottom=0;" parent="1" vertex="1">
          <mxGeometry x="70" y="550" width="340" height="100" as="geometry" />
        </mxCell>
        <mxCell id="WGG4HVokIeoPWF8pcOGC-25" value="- NOTIF_ID: int" style="text;strokeColor=none;fillColor=none;align=left;verticalAlign=top;spacingLeft=4;spacingRight=4;overflow=hidden;rotatable=0;points=[[0,0.5],[1,0.5]];portConstraint=eastwest;" parent="WGG4HVokIeoPWF8pcOGC-24" vertex="1">
          <mxGeometry y="26" width="340" height="24" as="geometry" />
        </mxCell>
        <mxCell id="WGG4HVokIeoPWF8pcOGC-26" value="" style="line;strokeWidth=1;fillColor=none;align=left;verticalAlign=middle;spacingTop=-1;spacingLeft=3;spacingRight=3;rotatable=0;labelPosition=right;points=[];portConstraint=eastwest;" parent="WGG4HVokIeoPWF8pcOGC-24" vertex="1">
          <mxGeometry y="50" width="340" height="8" as="geometry" />
        </mxCell>
        <mxCell id="WGG4HVokIeoPWF8pcOGC-27" value="+ onCreate()&#xa;+ onStartCommand(intent: Intent, flags: int, startId: int)" style="text;strokeColor=none;fillColor=none;align=left;verticalAlign=top;spacingLeft=4;spacingRight=4;overflow=hidden;rotatable=0;points=[[0,0.5],[1,0.5]];portConstraint=eastwest;" parent="WGG4HVokIeoPWF8pcOGC-24" vertex="1">
          <mxGeometry y="58" width="340" height="42" as="geometry" />
        </mxCell>
        <mxCell id="X0afUVVYYzV2fYzfAa5M-1" value="MainActivity" style="swimlane;fontStyle=1;align=center;verticalAlign=top;childLayout=stackLayout;horizontal=1;startSize=26;horizontalStack=0;resizeParent=1;resizeParentMax=0;resizeLast=0;collapsible=1;marginBottom=0;" vertex="1" parent="1">
          <mxGeometry x="70" y="40" width="240" height="190" as="geometry" />
        </mxCell>
        <mxCell id="X0afUVVYYzV2fYzfAa5M-3" value="" style="line;strokeWidth=1;fillColor=none;align=left;verticalAlign=middle;spacingTop=-1;spacingLeft=3;spacingRight=3;rotatable=0;labelPosition=right;points=[];portConstraint=eastwest;" vertex="1" parent="X0afUVVYYzV2fYzfAa5M-1">
          <mxGeometry y="26" width="240" height="8" as="geometry" />
        </mxCell>
        <mxCell id="X0afUVVYYzV2fYzfAa5M-4" value="+ onCreate(savedInstanceState: Bundle)&#xa;- dataBaseTester()&#xa;+ isNetworkAvailable(): boolean&#xa;- updateUI()&#xa;+ callAsynchronoustask()&#xa;&#xa;&#xa;&#xa;" style="text;strokeColor=none;fillColor=none;align=left;verticalAlign=top;spacingLeft=4;spacingRight=4;overflow=hidden;rotatable=0;points=[[0,0.5],[1,0.5]];portConstraint=eastwest;" vertex="1" parent="X0afUVVYYzV2fYzfAa5M-1">
          <mxGeometry y="34" width="240" height="156" as="geometry" />
        </mxCell>
        <mxCell id="X0afUVVYYzV2fYzfAa5M-5" value="APICall" style="swimlane;fontStyle=1;align=center;verticalAlign=top;childLayout=stackLayout;horizontal=1;startSize=26;horizontalStack=0;resizeParent=1;resizeParentMax=0;resizeLast=0;collapsible=1;marginBottom=0;" vertex="1" parent="1">
          <mxGeometry x="310" y="260" width="200" height="80" as="geometry" />
        </mxCell>
        <mxCell id="X0afUVVYYzV2fYzfAa5M-7" value="" style="line;strokeWidth=1;fillColor=none;align=left;verticalAlign=middle;spacingTop=-1;spacingLeft=3;spacingRight=3;rotatable=0;labelPosition=right;points=[];portConstraint=eastwest;" vertex="1" parent="X0afUVVYYzV2fYzfAa5M-5">
          <mxGeometry y="26" width="200" height="8" as="geometry" />
        </mxCell>
        <mxCell id="X0afUVVYYzV2fYzfAa5M-8" value="# doInBackground(): String&#xa;# onPostExecute(result: String)" style="text;strokeColor=none;fillColor=none;align=left;verticalAlign=top;spacingLeft=4;spacingRight=4;overflow=hidden;rotatable=0;points=[[0,0.5],[1,0.5]];portConstraint=eastwest;" vertex="1" parent="X0afUVVYYzV2fYzfAa5M-5">
          <mxGeometry y="34" width="200" height="46" as="geometry" />
        </mxCell>
        <mxCell id="X0afUVVYYzV2fYzfAa5M-14" value="" style="endArrow=block;endSize=16;endFill=0;html=1;entryX=0.212;entryY=1.037;entryDx=0;entryDy=0;entryPerimeter=0;exitX=0.5;exitY=0;exitDx=0;exitDy=0;" edge="1" parent="1" source="WGG4HVokIeoPWF8pcOGC-14" target="WGG4HVokIeoPWF8pcOGC-12">
          <mxGeometry width="160" relative="1" as="geometry">
            <mxPoint x="430" y="310" as="sourcePoint" />
            <mxPoint x="540" y="240" as="targetPoint" />
          </mxGeometry>
        </mxCell>
        <mxCell id="X0afUVVYYzV2fYzfAa5M-15" value="" style="endArrow=block;endSize=16;endFill=0;html=1;exitX=0.5;exitY=0;exitDx=0;exitDy=0;entryX=0.665;entryY=1.056;entryDx=0;entryDy=0;entryPerimeter=0;" edge="1" parent="1" source="WGG4HVokIeoPWF8pcOGC-1" target="WGG4HVokIeoPWF8pcOGC-12">
          <mxGeometry width="160" relative="1" as="geometry">
            <mxPoint x="380" y="240" as="sourcePoint" />
            <mxPoint x="540" y="240" as="targetPoint" />
          </mxGeometry>
        </mxCell>
        <mxCell id="X0afUVVYYzV2fYzfAa5M-17" value="" style="endArrow=open;startArrow=circlePlus;endFill=0;startFill=0;endSize=8;html=1;exitX=1;exitY=0.5;exitDx=0;exitDy=0;entryX=0.5;entryY=0;entryDx=0;entryDy=0;" edge="1" parent="1" source="X0afUVVYYzV2fYzfAa5M-4" target="X0afUVVYYzV2fYzfAa5M-5">
          <mxGeometry width="160" relative="1" as="geometry">
            <mxPoint x="380" y="240" as="sourcePoint" />
            <mxPoint x="540" y="240" as="targetPoint" />
          </mxGeometry>
        </mxCell>
        <mxCell id="X0afUVVYYzV2fYzfAa5M-20" value="" style="endArrow=open;endFill=1;endSize=12;html=1;exitX=1;exitY=0.5;exitDx=0;exitDy=0;entryX=0;entryY=0.5;entryDx=0;entryDy=0;" edge="1" parent="1" source="X0afUVVYYzV2fYzfAa5M-4" target="WGG4HVokIeoPWF8pcOGC-9">
          <mxGeometry width="160" relative="1" as="geometry">
            <mxPoint x="380" y="240" as="sourcePoint" />
            <mxPoint x="540" y="240" as="targetPoint" />
          </mxGeometry>
        </mxCell>
        <mxCell id="X0afUVVYYzV2fYzfAa5M-21" value="&lt;font style=&quot;font-size: 14px&quot;&gt;0...*&lt;/font&gt;" style="resizable=0;html=1;align=left;verticalAlign=bottom;labelBackgroundColor=#ffffff;fontSize=10;" connectable="0" vertex="1" parent="1">
          <mxGeometry x="320" y="240" as="geometry">
            <mxPoint x="330" y="-92" as="offset" />
          </mxGeometry>
        </mxCell>
      </root>
    </mxGraphModel>
  </diagram>
</mxfile>
